<svg width="43" height="43" viewBox="0 0 43 43" fill="none" xmlns="http://www.w3.org/2000/svg">
<g clip-path="url(#clip0)">
<rect width="43" height="43" fill="white"/>
<path d="M36.25 36.25C44.3962 28.1038 44.3962 14.8962 36.25 6.75002C28.1038 -1.39619 14.8962 -1.3962 6.75 6.75C-1.39621 14.8962 -1.3962 28.1038 6.75001 36.25C14.8962 44.3962 28.1038 44.3962 36.25 36.25Z" fill="#545E66"/>
<mask id="mask0" mask-type="alpha" maskUnits="userSpaceOnUse" x="-8" y="-8" width="59" height="59">
<path d="M36.25 36.25C44.3962 28.1038 44.3962 14.8962 36.25 6.75002C28.1038 -1.39619 14.8962 -1.3962 6.75 6.75C-1.39621 14.8962 -1.3962 28.1038 6.75001 36.25C14.8962 44.3962 28.1038 44.3962 36.25 36.25Z" fill="#545E66"/>
</mask>
<g mask="url(#mask0)">
<path d="M34.588 42.3603L33.7714 36.1061C33.6958 35.5691 33.4861 35.0598 33.1618 34.6252C32.8375 34.1906 32.4089 33.8446 31.9156 33.6193L24.7706 30.353H19.4072L12.2623 33.6193C11.77 33.8461 11.3423 34.1924 11.0181 34.6268C10.694 35.0611 10.4837 35.5697 10.4064 36.1061L9.47852 42.3603" fill="#F0F3F4"/>
<path d="M34.588 42.3603L33.7714 36.1061C33.6958 35.5691 33.4861 35.0598 33.1618 34.6252C32.8375 34.1906 32.4089 33.8446 31.9156 33.6193L24.7706 30.353H19.4072L12.2623 33.6193C11.77 33.8461 11.3423 34.1924 11.0181 34.6268C10.694 35.0611 10.4837 35.5697 10.4064 36.1061L9.47852 42.3603" stroke="#545E66" stroke-width="0.5" stroke-miterlimit="10"/>
<path d="M24.5685 30.2042C24.6809 30.4941 24.7376 30.8027 24.7355 31.1136C24.6796 31.7815 24.3749 32.4041 23.8816 32.8579C23.3883 33.3116 22.7426 33.5635 22.0723 33.5635C21.4021 33.5635 20.7563 33.3116 20.263 32.8579C19.7698 32.4041 19.465 31.7815 19.4092 31.1136C19.4084 30.8558 19.4459 30.5994 19.5205 30.3527L24.5685 30.2042Z" fill="#F0F3F4" stroke="#545E66" stroke-width="0.5" stroke-miterlimit="10"/>
<path d="M14.064 18.8652L14.9733 25.5648C15.0553 26.2651 15.2971 26.9373 15.68 27.5293C16.0629 28.1214 16.5767 28.6176 17.1818 28.9796L19.8171 30.5385C20.4494 30.9124 21.1704 31.1096 21.905 31.1096C22.6395 31.1096 23.3605 30.9124 23.9928 30.5385L26.6466 28.9796C27.2352 28.621 27.7379 28.1377 28.1195 27.5637C28.5011 26.9898 28.7522 26.3391 28.8551 25.6576L30.0799 17.0836L25.5702 15.8959L14.064 18.8652Z" fill="#F0F3F4" stroke="#545E66" stroke-width="0.5" stroke-miterlimit="10"/>
<path d="M29.6713 19.8674C28.7727 19.6535 27.9288 19.2541 27.1937 18.6948C26.4586 18.1355 25.8485 17.4286 25.4028 16.6197C19.8352 20.3313 12.1892 19.1807 12.1892 19.1807C12.5979 18.9662 12.9472 18.6541 13.2062 18.272C13.4653 17.89 13.626 17.4499 13.6739 16.9908C12.896 17.2796 12.0555 17.3579 11.2376 17.2178C10.4197 17.0776 9.65325 16.7241 9.01576 16.1928C12.4676 16.0072 12.7274 14.337 12.7274 14.337C12.0045 14.5424 11.2422 14.5668 10.5075 14.4083C9.77292 14.2497 9.0885 13.9129 8.51465 13.4276C9.11174 13.5081 9.71947 13.442 10.2853 13.2351C10.8511 13.0281 11.3581 12.6866 11.7624 12.2399C11.7624 12.2399 10.0364 11.6274 9.77661 10.384C9.77661 10.384 12.3934 12.0914 15.938 9.06638C19.8538 5.70731 29.7269 5.76299 30.5621 13.9101L29.6713 19.8674Z" fill="#F0F3F4" stroke="#545E66" stroke-width="0.5" stroke-linecap="round" stroke-linejoin="round"/>
<path d="M29.0586 24.1175C30.9144 24.1175 31.397 20.8883 30.469 20.7955C29.8381 20.7955 29.4298 21.5193 29.4298 21.5193L29.0586 24.1175Z" fill="#F0F3F4" stroke="#545E66" stroke-width="0.5" stroke-miterlimit="10"/>
<path d="M14.7688 24.0987C12.913 24.0987 12.4304 20.8881 13.3398 20.7953C14.2491 20.7025 14.4162 21.5191 14.4162 21.5191L14.7688 24.0987Z" fill="#F0F3F4" stroke="#545E66" stroke-width="0.5" stroke-miterlimit="10"/>
</g>
</g>
<defs>
<clipPath id="clip0">
<rect width="43" height="43" fill="white"/>
</clipPath>
</defs>
</svg>
