<svg width="20" height="20" viewBox="0 0 20 20" fill="none" xmlns="http://www.w3.org/2000/svg">
<g clip-path="url(#clip0_1509_9)">
<path d="M14.2857 3.57129H2.14286C0.959388 3.57129 0 4.53068 0 5.71415V17.857C0 19.0405 0.959388 19.9998 2.14286 19.9998H14.2857C15.4692 19.9998 16.4285 19.0405 16.4285 17.857V5.71415C16.4285 4.53068 15.4692 3.57129 14.2857 3.57129Z" fill="white"/>
<path d="M17.8572 1.38366e-09H5.00003C3.82297 -4.18513e-05 2.86622 0.949386 2.85718 2.12641C2.85718 2.13214 2.85718 2.13712 2.85718 2.14286H14.2858C16.2572 2.1452 17.8548 3.7428 17.8572 5.71427V17.1428C17.8629 17.1428 17.8679 17.1428 17.8736 17.1428C19.0507 17.1338 20.0001 16.1771 20 15V2.14286C20 0.959388 19.0406 1.38366e-09 17.8572 1.38366e-09Z" fill="white"/>
</g>
<defs>
<clipPath id="clip0_1509_9">
<rect width="20" height="20" fill="white"/>
</clipPath>
</defs>
</svg>
